<mxfile host="Electron" agent="Mozilla/5.0 (Windows NT 10.0; Win64; x64) AppleWebKit/537.36 (KHTML, like Gecko) draw.io/26.0.4 Chrome/128.0.6613.186 Electron/32.2.5 Safari/537.36" version="26.0.4">
  <diagram name="Page-1" id="uiciOeqyXUelbQB388fl">
    <mxGraphModel dx="1036" dy="654" grid="1" gridSize="10" guides="1" tooltips="1" connect="1" arrows="1" fold="1" page="1" pageScale="1" pageWidth="850" pageHeight="1100" math="0" shadow="0">
      <root>
        <mxCell id="0" />
        <mxCell id="1" parent="0" />
        <mxCell id="pFXqNumYcZ-uj90Jh_0Z-1" value="nhanvien" style="rounded=0;whiteSpace=wrap;html=1;" parent="1" vertex="1">
          <mxGeometry x="170" y="250" width="120" height="60" as="geometry" />
        </mxCell>
        <mxCell id="pFXqNumYcZ-uj90Jh_0Z-2" value="phongban" style="rounded=0;whiteSpace=wrap;html=1;" parent="1" vertex="1">
          <mxGeometry x="570" y="250" width="120" height="60" as="geometry" />
        </mxCell>
        <mxCell id="pFXqNumYcZ-uj90Jh_0Z-3" value="sodienthoai" style="ellipse;whiteSpace=wrap;html=1;" parent="1" vertex="1">
          <mxGeometry x="610" y="370" width="80" height="50" as="geometry" />
        </mxCell>
        <mxCell id="pFXqNumYcZ-uj90Jh_0Z-4" value="&lt;u&gt;maphongban&lt;/u&gt;" style="ellipse;whiteSpace=wrap;html=1;" parent="1" vertex="1">
          <mxGeometry x="600" y="120" width="80" height="50" as="geometry" />
        </mxCell>
        <mxCell id="pFXqNumYcZ-uj90Jh_0Z-5" value="hoten" style="ellipse;whiteSpace=wrap;html=1;" parent="1" vertex="1">
          <mxGeometry x="160" y="370" width="110" height="70" as="geometry" />
        </mxCell>
        <mxCell id="pFXqNumYcZ-uj90Jh_0Z-6" value="maphongban" style="ellipse;whiteSpace=wrap;html=1;" parent="1" vertex="1">
          <mxGeometry x="50" y="270" width="80" height="50" as="geometry" />
        </mxCell>
        <mxCell id="pFXqNumYcZ-uj90Jh_0Z-7" value="&lt;u&gt;manhanvien&lt;/u&gt;" style="ellipse;whiteSpace=wrap;html=1;" parent="1" vertex="1">
          <mxGeometry x="150" y="140" width="80" height="50" as="geometry" />
        </mxCell>
        <mxCell id="hT392AdYaracuRSamFGE-1" style="edgeStyle=orthogonalEdgeStyle;rounded=0;orthogonalLoop=1;jettySize=auto;html=1;exitX=1;exitY=0.5;exitDx=0;exitDy=0;entryX=0;entryY=0.5;entryDx=0;entryDy=0;" edge="1" parent="1" source="pFXqNumYcZ-uj90Jh_0Z-8" target="pFXqNumYcZ-uj90Jh_0Z-2">
          <mxGeometry relative="1" as="geometry" />
        </mxCell>
        <mxCell id="pFXqNumYcZ-uj90Jh_0Z-8" value="cÃ³" style="rhombus;whiteSpace=wrap;html=1;" parent="1" vertex="1">
          <mxGeometry x="400" y="250" width="90" height="60" as="geometry" />
        </mxCell>
        <mxCell id="pFXqNumYcZ-uj90Jh_0Z-10" value="tenphongban" style="ellipse;whiteSpace=wrap;html=1;" parent="1" vertex="1">
          <mxGeometry x="730" y="170" width="80" height="50" as="geometry" />
        </mxCell>
        <mxCell id="pFXqNumYcZ-uj90Jh_0Z-11" value="" style="endArrow=none;html=1;rounded=0;exitX=1;exitY=0.5;exitDx=0;exitDy=0;entryX=0;entryY=0.5;entryDx=0;entryDy=0;" parent="1" source="pFXqNumYcZ-uj90Jh_0Z-1" target="pFXqNumYcZ-uj90Jh_0Z-8" edge="1">
          <mxGeometry width="50" height="50" relative="1" as="geometry">
            <mxPoint x="400" y="340" as="sourcePoint" />
            <mxPoint x="450" y="290" as="targetPoint" />
          </mxGeometry>
        </mxCell>
        <mxCell id="pFXqNumYcZ-uj90Jh_0Z-13" value="n" style="text;html=1;align=center;verticalAlign=middle;resizable=0;points=[];autosize=1;strokeColor=none;fillColor=none;" parent="1" vertex="1">
          <mxGeometry x="305" y="258" width="30" height="30" as="geometry" />
        </mxCell>
        <mxCell id="pFXqNumYcZ-uj90Jh_0Z-14" value="1" style="text;html=1;align=center;verticalAlign=middle;resizable=0;points=[];autosize=1;strokeColor=none;fillColor=none;" parent="1" vertex="1">
          <mxGeometry x="510" y="250" width="30" height="30" as="geometry" />
        </mxCell>
        <mxCell id="pFXqNumYcZ-uj90Jh_0Z-15" value="" style="endArrow=none;html=1;rounded=0;exitX=0.5;exitY=1;exitDx=0;exitDy=0;entryX=0.5;entryY=0;entryDx=0;entryDy=0;" parent="1" source="pFXqNumYcZ-uj90Jh_0Z-7" target="pFXqNumYcZ-uj90Jh_0Z-1" edge="1">
          <mxGeometry width="50" height="50" relative="1" as="geometry">
            <mxPoint x="400" y="340" as="sourcePoint" />
            <mxPoint x="450" y="290" as="targetPoint" />
          </mxGeometry>
        </mxCell>
        <mxCell id="pFXqNumYcZ-uj90Jh_0Z-16" value="" style="endArrow=none;html=1;rounded=0;exitX=1;exitY=0.5;exitDx=0;exitDy=0;entryX=0;entryY=0.5;entryDx=0;entryDy=0;" parent="1" source="pFXqNumYcZ-uj90Jh_0Z-6" target="pFXqNumYcZ-uj90Jh_0Z-1" edge="1">
          <mxGeometry width="50" height="50" relative="1" as="geometry">
            <mxPoint x="400" y="340" as="sourcePoint" />
            <mxPoint x="450" y="290" as="targetPoint" />
          </mxGeometry>
        </mxCell>
        <mxCell id="pFXqNumYcZ-uj90Jh_0Z-17" value="" style="endArrow=none;html=1;rounded=0;exitX=0.5;exitY=0;exitDx=0;exitDy=0;entryX=0.5;entryY=1;entryDx=0;entryDy=0;" parent="1" source="pFXqNumYcZ-uj90Jh_0Z-5" target="pFXqNumYcZ-uj90Jh_0Z-1" edge="1">
          <mxGeometry width="50" height="50" relative="1" as="geometry">
            <mxPoint x="400" y="340" as="sourcePoint" />
            <mxPoint x="450" y="290" as="targetPoint" />
          </mxGeometry>
        </mxCell>
        <mxCell id="pFXqNumYcZ-uj90Jh_0Z-18" value="" style="endArrow=none;html=1;rounded=0;entryX=0.5;entryY=1;entryDx=0;entryDy=0;exitX=0.5;exitY=0;exitDx=0;exitDy=0;" parent="1" source="pFXqNumYcZ-uj90Jh_0Z-2" target="pFXqNumYcZ-uj90Jh_0Z-4" edge="1">
          <mxGeometry width="50" height="50" relative="1" as="geometry">
            <mxPoint x="400" y="340" as="sourcePoint" />
            <mxPoint x="450" y="290" as="targetPoint" />
          </mxGeometry>
        </mxCell>
        <mxCell id="pFXqNumYcZ-uj90Jh_0Z-19" value="" style="endArrow=none;html=1;rounded=0;entryX=0.5;entryY=1;entryDx=0;entryDy=0;exitX=1;exitY=0.5;exitDx=0;exitDy=0;" parent="1" source="pFXqNumYcZ-uj90Jh_0Z-2" target="pFXqNumYcZ-uj90Jh_0Z-10" edge="1">
          <mxGeometry width="50" height="50" relative="1" as="geometry">
            <mxPoint x="400" y="340" as="sourcePoint" />
            <mxPoint x="450" y="290" as="targetPoint" />
          </mxGeometry>
        </mxCell>
        <mxCell id="pFXqNumYcZ-uj90Jh_0Z-21" value="" style="endArrow=none;html=1;rounded=0;exitX=0.5;exitY=0;exitDx=0;exitDy=0;entryX=0.5;entryY=1;entryDx=0;entryDy=0;" parent="1" source="pFXqNumYcZ-uj90Jh_0Z-3" target="pFXqNumYcZ-uj90Jh_0Z-2" edge="1">
          <mxGeometry width="50" height="50" relative="1" as="geometry">
            <mxPoint x="400" y="340" as="sourcePoint" />
            <mxPoint x="450" y="290" as="targetPoint" />
          </mxGeometry>
        </mxCell>
        <mxCell id="pFXqNumYcZ-uj90Jh_0Z-22" value="ngaysinh" style="ellipse;whiteSpace=wrap;html=1;" parent="1" vertex="1">
          <mxGeometry x="305" y="110" width="80" height="50" as="geometry" />
        </mxCell>
        <mxCell id="pFXqNumYcZ-uj90Jh_0Z-23" value="" style="endArrow=none;html=1;rounded=0;exitX=0.5;exitY=1;exitDx=0;exitDy=0;entryX=0.75;entryY=0;entryDx=0;entryDy=0;" parent="1" source="pFXqNumYcZ-uj90Jh_0Z-22" target="pFXqNumYcZ-uj90Jh_0Z-1" edge="1">
          <mxGeometry width="50" height="50" relative="1" as="geometry">
            <mxPoint x="655" y="180" as="sourcePoint" />
            <mxPoint x="425" y="120" as="targetPoint" />
          </mxGeometry>
        </mxCell>
      </root>
    </mxGraphModel>
  </diagram>
</mxfile>
